<svg width="39" height="40" viewBox="0 0 39 40" fill="none" xmlns="http://www.w3.org/2000/svg">
<path d="M38.037 32.1882H29.7502C29.4851 32.1882 29.2688 32.4062 29.2688 32.6735C29.2688 32.9409 29.4851 33.1589 29.7502 33.1589H38.037C38.3022 33.1589 38.5185 32.9409 38.5185 32.6735C38.5185 32.4062 38.3022 32.1882 38.037 32.1882Z" fill="white"/>
<path d="M38.037 38.3401H28.7459C28.4807 38.3401 28.2644 38.5581 28.2644 38.8254C28.2644 39.0927 28.4807 39.3107 28.7459 39.3107H38.037C38.3022 39.3107 38.5185 39.0927 38.5185 38.8254C38.5185 38.5581 38.3022 38.3401 38.037 38.3401Z" fill="white"/>
<path d="M0.481481 35.6917H7.9743C8.23949 35.6917 8.45578 35.4737 8.45578 35.2064C8.45578 34.9391 8.23949 34.7211 7.9743 34.7211H0.481481C0.216291 34.7211 0 34.9391 0 35.2064C0 35.4756 0.216291 35.6917 0.481481 35.6917Z" fill="white"/>
<path fill-rule="evenodd" clip-rule="evenodd" d="M3.74481 0.534702C3.93098 0.441813 4.15292 0.479726 4.29962 0.627597L4.29986 0.627825C4.44468 0.775671 4.48229 1.00127 4.38825 1.18895C4.08921 1.79181 3.93875 2.43446 3.93875 3.09988C3.93875 5.47715 5.86843 7.41274 8.23823 7.41274C8.90215 7.41274 9.54348 7.25918 10.1453 6.95965C10.3315 6.86676 10.5534 6.90467 10.7001 7.05255C10.8468 7.20039 10.8826 7.42599 10.7904 7.61178C9.89328 9.42603 8.08772 10.5521 6.07903 10.5521C3.1768 10.5521 0.816437 8.18032 0.816437 5.26653C0.816437 3.24752 1.93925 1.43521 3.74481 0.534702ZM9.12763 8.30712C8.83421 8.3583 8.53892 8.38295 8.23799 8.38295L8.23811 8.38312C5.33594 8.38312 2.97557 6.01327 2.97745 3.09948C2.97745 2.79616 3.0019 2.4985 3.05268 2.20466C2.24772 2.99897 1.7794 4.09093 1.7794 5.26632C1.7794 7.64549 3.70908 9.58107 6.07889 9.58107C7.25062 9.58107 8.33583 9.11284 9.12763 8.30712Z" fill="white"/>
<path fill-rule="evenodd" clip-rule="evenodd" d="M38.039 24.4101H38.0371C37.7719 24.4101 37.5575 24.6262 37.5556 24.8935L37.5443 27.485L19.677 0.923621C19.4983 0.656319 19.0601 0.656319 18.8796 0.923621L1.02529 27.466L1.03658 24.7153C1.03846 24.448 0.822169 24.2281 0.556979 24.2281H0.555098C0.289908 24.2281 0.0754995 24.4442 0.0736169 24.7115L0.05669 29.0528C0.0548088 29.267 0.193989 29.4547 0.395229 29.5191C0.442249 29.5343 0.489267 29.54 0.538171 29.54C0.694277 29.54 0.84474 29.4623 0.936896 29.3277L3.74677 25.1513V29.0566C3.74677 29.3239 3.96306 29.5419 4.22826 29.5419H14.9523C15.4996 31.3315 17.1603 32.6358 19.1201 32.6358C19.1266 32.6358 19.1327 32.6353 19.1388 32.6348L19.1389 32.6348C19.145 32.6344 19.1511 32.6339 19.1577 32.6339C19.1605 32.6339 19.1638 32.6343 19.1671 32.6348L19.1671 32.6348L19.1672 32.6348C19.1704 32.6353 19.1737 32.6358 19.1765 32.6358C19.1825 32.6358 19.1884 32.6352 19.1944 32.6344L19.2047 32.6329C19.2141 32.6315 19.2235 32.6301 19.2329 32.6301C21.1419 32.5808 22.75 31.2955 23.2861 29.5419H34.3303C34.5955 29.5419 34.8118 29.3239 34.8118 29.0566V25.1513L37.6216 29.3277C37.7401 29.504 37.9583 29.5817 38.1595 29.5191C38.3608 29.4566 38.5 29.2689 38.5 29.0566L38.5188 24.8973C38.5207 24.6281 38.3062 24.4119 38.0392 24.4101L38.039 24.4101ZM19.2328 31.6597L19.2274 31.6601C19.2031 31.6619 19.1803 31.6635 19.1575 31.6635C18.3225 31.6521 17.6454 30.9696 17.6454 30.1318C17.6454 29.5801 18.4504 28.3099 19.1764 27.3525C19.9023 28.3099 20.7073 29.58 20.7073 30.1318C20.7073 30.9564 20.0509 31.6294 19.2328 31.6597L19.2328 31.6597ZM21.6684 30.1298C21.6684 30.2739 21.6496 30.4104 21.627 30.5469L21.627 30.5469C22.1781 29.9403 22.5166 29.1384 22.5129 28.2568C22.5129 26.8028 20.3236 23.7089 19.1161 22.1695C17.9106 23.7089 15.7194 26.8047 15.7194 28.2568C15.7194 29.2123 16.1163 30.0768 16.7501 30.6967C16.7087 30.5128 16.6805 30.3251 16.6805 30.1298C16.6805 28.9013 18.4503 26.6928 18.8039 26.2624C18.9864 26.0406 19.3625 26.0406 19.545 26.2624C19.9005 26.6928 21.6684 28.9014 21.6684 30.1298ZM19.4905 21.089C19.308 20.8672 18.9319 20.8672 18.7494 21.089C18.3413 21.5838 14.7602 25.997 14.7602 28.2572C14.7602 28.3333 14.7651 28.4084 14.7699 28.4833V28.4833C14.7718 28.5128 14.7737 28.5423 14.7753 28.5719H9.92677V25.3718C10.555 24.8599 12.637 23.0855 14.7454 20.4521C16.457 18.3156 18.4111 15.2957 19.2969 11.8528C20.1828 15.2974 22.1369 18.3153 23.8484 20.4521C25.9568 23.0854 28.0388 24.8598 28.6671 25.3718V28.5719H23.4628C23.4703 28.4676 23.4778 28.3633 23.4778 28.2572C23.4797 25.9974 19.8987 21.5841 19.4906 21.089H19.4905ZM29.6278 28.5716H33.8482L33.8507 23.7204L19.2801 2.06121L4.70954 23.7204V28.5716H8.96199V25.1365C8.96199 24.9849 9.03158 24.8427 9.15006 24.7517L9.15041 24.7514C9.26656 24.6597 18.8134 17.1172 18.8134 8.19028C18.8134 7.92298 19.0297 7.70496 19.2949 7.70496C19.5601 7.70496 19.7764 7.92298 19.7764 8.19028C19.7764 17.1141 29.3165 24.6543 29.4392 24.7513L29.4397 24.7517C29.5582 24.8446 29.6278 24.9868 29.6278 25.1365V28.5716Z" fill="white"/>
<path fill-rule="evenodd" clip-rule="evenodd" d="M26.596 34.433C26.6393 34.5543 26.6299 34.6908 26.5735 34.8064L26.5738 34.8064C26.5155 34.924 26.4158 35.0131 26.2917 35.0548L24.5106 35.6482L26.2221 36.1354C26.3462 36.1714 26.4515 36.2548 26.5136 36.3686C26.5757 36.4823 26.5888 36.615 26.5531 36.7401L25.9381 38.8293C25.8761 39.0397 25.6861 39.1762 25.4773 39.1762C25.4341 39.1762 25.3889 39.1686 25.3457 39.1572L19.2179 37.4112L13.5941 39.2861C13.5452 39.3032 13.4945 39.3108 13.4437 39.3108C13.2443 39.3108 13.0581 39.1857 12.9923 38.9847L12.2832 36.924C12.24 36.8027 12.2494 36.6662 12.3058 36.5506C12.3622 36.433 12.4638 36.3458 12.586 36.3041L14.0718 35.8093L12.287 35.3012C12.1628 35.2652 12.0575 35.1818 11.9955 35.0681C11.9334 34.9543 11.9202 34.8216 11.956 34.6965L12.571 32.6074C12.6462 32.3514 12.9095 32.2055 13.1634 32.2775L19.3644 34.0443L25.2813 32.0708C25.5315 31.9874 25.8004 32.122 25.8869 32.3723L26.596 34.433ZM13.3592 33.341L13.0169 34.4993L15.7026 35.2652L17.7339 34.5884L13.3592 33.341ZM25.4901 36.9354L25.1478 38.0937L20.8483 36.8671L22.8796 36.1904L25.4901 36.9354ZM13.3499 37.0718L13.7429 38.215L25.5262 34.287L25.1331 33.1438L13.3499 37.0718Z" fill="white"/>
</svg>
